<svg xmlns="http://www.w3.org/2000/svg" width="900" height="600" viewBox="0 0 900 600"><title>BandeiraNacional_cmyk</title><path style="fill:#ed1c24;fill-rule:evenodd;stroke-width:1.323" d="M360.005 0H900v600H360.005z"/><path style="fill:#006035;fill-rule:evenodd;stroke-width:1.323" d="M0 0h360.005v600H0z"/><path d="M360.85 297.11c-34.26-1-191.34-99.08-192.41-114.68l8.67-14.43c15.59 22.6 176.17 118 191.94 114.57z" style="fill:#fff200;fill-rule:evenodd" transform="scale(1.32287 1.32293)"/><path d="M175.29 166c-3.07 8.27 41 35.51 94 67.75s98.71 52.17 102.12 49.31a30 30 0 0 0 1.53-2.86c-.64 1-2.18 1.26-4.59.56-14.32-4.13-51.68-21.28-97.94-49.33s-86.51-53.91-92.77-64.89a6.66 6.66 0 0 1-.68-3.23h-.15l-1.33 2.33-.18.37Zm186.38 131.57c-.58 1.06-1.66 1.09-3.72.86-12.81-1.42-51.69-20.32-97.7-47.86-53.53-32-97.75-61.24-92.94-68.88l1.31-2.31.26.08c-4.31 12.93 87.25 65.28 92.64 68.62 53 32.82 97.65 52 101.6 47l-1.44 2.47Z" style="fill:#fff200;stroke:#231f20;stroke-linecap:round;stroke-linejoin:round;stroke-width:.6479318141937256px;fill-rule:evenodd" transform="scale(1.32287 1.32293)"/><path d="M272.33 191.88c34.29-.27 76.6-4.69 100.94-14.39L368 169c-14.39 8-56.93 13.2-96 14-46.19-.43-78.8-4.73-95.13-15.69l-5 9.08c30 12.71 60.8 15.41 100.37 15.54Z" style="fill:#fff200;fill-rule:evenodd" transform="scale(1.32287 1.32293)"/><path d="M374.69 177.69c-.84 1.34-16.72 6.82-40.11 10.86a415 415 0 0 1-62.37 4.51 442 442 0 0 1-59.74-3.78c-24.56-3.85-37.23-9.21-41.92-11.1.45-.89.74-1.52 1.17-2.35a181.4 181.4 0 0 0 41.14 10.9 437 437 0 0 0 59.28 3.79 416.4 416.4 0 0 0 61.93-4.6c24-3.87 37.09-8.85 38.93-11.16l1.69 2.92Zm-4.61-8.69c-2.6 2.09-15.55 6.68-38.35 10.32a412.6 412.6 0 0 1-59.26 4.16 399 399 0 0 1-57.25-3.68c-23.15-3-35.47-8.48-39.91-10.07q.66-1.14 1.35-2.28c3.46 1.74 15.35 6.57 38.81 9.89a410 410 0 0 0 57 3.54 407.5 407.5 0 0 0 58.83-4.18c22.91-3.15 35.24-9 37.11-10.48z" style="fill:#fff200;stroke:#231f20;stroke-linecap:round;stroke-linejoin:round;stroke-width:.6498136520385742px" transform="scale(1.32287 1.32293)"/><path d="M159.75 233.18c21.09 11.34 67.93 17.06 112.25 17.45 40.36.06 92.93-6.24 112.59-16.66l-.59-11.34c-6.15 9.61-62.49 18.83-112.49 18.46S175.13 233 159.66 223l.09 10.2Z" style="fill:#fff200;fill-rule:evenodd" transform="scale(1.32287 1.32293)"/><path d="M385.67 231.55v2.71c-3 3.53-21.48 8.87-44.72 12.63-17.68 2.71-40.74 4.76-69.47 4.76-27.29 0-49.06-1.94-65.93-4.54-26.68-3.88-43.74-10.69-47.17-12.72v-3.16c10.29 6.84 38.17 11.85 47.53 13.38 16.77 2.58 38.4 4.51 65.56 4.51 28.59 0 51.52-2 69.09-4.73 16.67-2.41 40.42-8.67 45.09-12.84Zm0-9.63v2.71c-3 3.53-21.48 8.87-44.72 12.63C323.28 240 300.22 242 271.5 242c-27.29 0-49.06-1.94-65.93-4.54-26.68-3.88-43.74-10.69-47.17-12.72v-3.16c10.29 6.84 38.17 11.85 47.53 13.38 16.77 2.58 38.4 4.51 65.56 4.51 28.59 0 51.52-2 69.09-4.73 16.67-2.41 40.42-8.67 45.09-12.84Z" style="fill:#fff200;stroke:#231f20;stroke-linecap:round;stroke-linejoin:round;stroke-width:.6495310068130493px" transform="scale(1.32287 1.32293)"/><path d="M271.9 295.17c-48.5-.29-90.06-13.22-98.83-15.36l6.4 10c15.5 6.52 56 16.24 92.9 15.16s69.07-3.93 91.76-15l6.56-10.38c-15.47 7.28-68.11 15.46-98.79 15.54Z" style="fill:#fff200;fill-rule:evenodd" transform="scale(1.32287 1.32293)"/><path d="M366.59 287.68c-1 1.47-1.95 2.93-2.94 4.34a258 258 0 0 1-34.65 8.9c-14.54 3-37 5.21-57 5.22-43-.63-78.13-9-94.68-16.21l-1.33-2.3.22-.35 2.26.88c29.42 10.52 62.47 14.72 93.77 15.48a319.7 319.7 0 0 0 55.89-5.16c24.69-4.95 34.67-8.67 37.73-10.36l.78-.44Zm5.69-9.38.07.09c-.72 1.22-1.46 2.46-2.23 3.7-5.71 2-21.21 6.57-43.84 9.74-14.91 2-24.18 4-53.84 4.58-55.58-1.41-91.56-12.28-100.11-15l-1.25-2.41c32.21 8.41 65.11 14.28 101.38 14.88 27.14-.58 38.68-2.58 53.47-4.59 26.39-4.1 39.68-8.45 43.67-9.7l-.18-.23 2.86-1.07Z" style="fill:#fff200;stroke:#231f20;stroke-linecap:round;stroke-linejoin:round;stroke-width:.6495494842529297px" transform="scale(1.32287 1.32293)"/><path d="M272 125.92c55.69 0 100.66 45.28 100.66 101a100.74 100.74 0 1 1-100.66-101m0-10c61 0 110.79 49.78 110.79 110.81S333 337.56 272 337.56s-110.83-49.78-110.83-110.81S210.93 115.94 272 115.94Z" style="fill:#fff200;fill-rule:evenodd" transform="scale(1.32287 1.32293)"/><path d="M272 114.61c61.84 0 112.27 50.44 112.27 112.28S333.87 339.16 272 339.16s-112.24-50.44-112.24-112.28S210.2 114.61 272 114.61m0 2.47c60.21 0 109.8 49.42 109.8 109.81s-49.56 109.8-109.8 109.8-109.8-49.42-109.8-109.81 49.63-109.8 109.8-109.8" style="fill:#fff200;stroke:#231f20;stroke-linecap:round;stroke-linejoin:round;stroke-width:.6495310068130493px;fill-rule:evenodd" transform="scale(1.32287 1.32293)"/><path d="M272.13 123.94c56.39 0 102.84 46.28 102.84 102.84s-46.45 102.85-102.84 102.85-102.84-46.28-102.84-102.85 46.45-102.84 102.84-102.84m0 2.47c55 0 100.37 45.17 100.37 100.37s-45.33 100.38-100.37 100.38S171.76 282 171.76 226.78s45.34-100.37 100.37-100.37" style="fill:#fff200;stroke:#231f20;stroke-linecap:round;stroke-linejoin:round;stroke-width:.6495310068130493px;fill-rule:evenodd" transform="scale(1.32287 1.32293)"/><path style="fill:#fff200;fill-rule:evenodd" d="M267.49 114.08h9.77v225.91h-9.77z" transform="scale(1.32287 1.32293)"/><path d="M268.76 114.16h6.82m-6.81 225.59h6.86" style="fill:none;stroke:#231f20;stroke-linecap:round;stroke-linejoin:round;stroke-width:.6495310068130493px" transform="scale(1.32287 1.32293)"/><path d="M275.68 112.87h2.45v228.19h-2.43V112.87Zm-9.55 0h2.47v228.19h-2.47z" style="fill:#fff200;stroke:#231f20;stroke-linecap:round;stroke-linejoin:round;stroke-width:.6496841907501221px;fill-rule:evenodd" transform="scale(1.32287 1.32293)"/><path d="M159.36 222.1c14.08-13 66-21.36 112.11-21.15s100.67 9.69 112.53 20.88l.12 9.67c-9.94-9.35-52.35-20.51-112.57-20.63s-103.93 11.33-112.19 20.87z" style="fill:#fff200;fill-rule:evenodd" transform="scale(1.32287 1.32293)"/><path d="M159.34 222.55v8.34m225.05-8v8.34" style="fill:none;stroke:#231f20;stroke-linecap:round;stroke-linejoin:round;stroke-width:.6508455276489258px" transform="scale(1.32287 1.32293)"/><path d="M272.09 209.5c26.51 0 52.24 2.51 72.64 6.48 21.06 4.21 35.87 9.48 40.94 15.39v2.93c-6.11-7.36-26-12.75-41.41-15.84-20.26-3.94-45.81-6.46-72.17-6.46-27.82.05-53.73 2.69-73.69 6.58-16 3.18-37.36 9.49-40 15.71v-3.05c1.46-4.31 17.36-10.75 39.67-15.21 20.1-3.92 46.06-6.51 74-6.56Zm0-9.63c26.51 0 52.24 2.51 72.64 6.48 21.06 4.21 35.87 9.48 40.94 15.39v2.93c-6.11-7.36-26-12.75-41.41-15.84-20.25-3.94-45.8-6.48-72.17-6.43-27.82.05-53.61 2.69-73.56 6.58-15.45 2.93-37.68 9.49-40.15 15.71v-3.05c1.46-4.26 17.69-10.93 39.67-15.21 20.1-3.92 46.06-6.51 74-6.56Z" style="fill:#fff200;stroke:#231f20;stroke-linecap:round;stroke-linejoin:round;stroke-width:.6495310068130493px" transform="scale(1.32287 1.32293)"/><path d="M271.55 150.76c41.78-.21 78.23 5.84 94.9 14.38l6.08 10.52c-14.49-7.81-53.81-15.93-100.92-14.72-38.39.24-79.4 4.23-100 15.21l7.27-12.15c16.89-8.76 56.72-13.2 92.66-13.25Z" style="fill:#fff200;fill-rule:evenodd" transform="scale(1.32287 1.32293)"/><path style="fill:none;stroke:#231f20;stroke-linecap:round;stroke-linejoin:round;stroke-width:.6494889855384827px" d="m367.51 166.84 4.14 6.65" transform="scale(1.32287 1.32293)"/><path d="M272.1 159.45c23.83-.06 46.86 1.28 65.17 4.59 17.06 3.17 33.32 7.94 35.65 10.5l1.8 3.19c-5.66-3.69-19.73-7.8-37.8-11.23s-41.16-4.54-64.86-4.48c-26.9-.09-47.8 1.33-65.73 4.45-19 3.55-32.13 8.62-35.38 11l1.77-3.37C179 170.9 189 167 205.85 164c18.55-3.39 39.67-4.41 66.25-4.55m0-9.62c22.81-.06 45.33 1.21 62.88 4.37 13.84 2.7 27.53 6.9 32.55 10.65l2.64 4.19c-4.48-5-21.36-9.7-36.26-12.35-17.42-3-39-4.19-61.81-4.38-23.93.06-46.05 1.53-63.22 4.66-16.38 3.11-26.94 6.8-31.41 9.68l2.32-3.5c6.17-3.25 16.14-6.23 28.69-8.67 17.29-3.15 39.55-4.58 63.62-4.64Z" style="fill:#fff200;stroke:#231f20;stroke-linecap:round;stroke-linejoin:round;stroke-width:.6498136520385742px" transform="scale(1.32287 1.32293)"/><path d="M327.87 273.56c-20.66-3.86-41.35-4.42-55.81-4.25-69.63.82-92.12 14.3-94.87 18.38l-5.2-8.48c17.73-12.85 55.64-20.06 100.45-19.32 23.27.38 43.34 1.93 60.23 5.2z" style="fill:#fff200;fill-rule:evenodd" transform="scale(1.32287 1.32293)"/><path style="fill:none;stroke:#231f20;stroke-linecap:round;stroke-linejoin:round;stroke-width:.6495310068130493px" d="m173.14 280.38 3.42 5.88" transform="scale(1.32287 1.32293)"/><path d="M271.66 268.11c19.37.29 38.38 1.09 56.73 4.51l-1.32 2.38c-17-3.15-35.21-4.35-55.34-4.25-25.7-.2-51.69 2.2-74.32 8.69-7.14 2-19 6.58-20.17 10.37l-1.32-2.18c.38-2.24 7.53-6.89 20.88-10.65 25.92-7.42 50.16-8.67 74.86-8.84Zm.88-9.75c20.07.37 40.79 1.3 60.94 5.29l-1.38 2.44c-18.19-3.61-35.57-4.81-59.43-5.18-25.78 0-53.12 1.88-78 9.11-8 2.34-21.88 7.39-22.34 11.39l-1.33-2.32c.3-3.64 12.3-8.38 23.08-11.52 25.06-7.28 52.47-9.16 78.45-9.2Z" style="fill:#fff200;stroke:#231f20;stroke-linecap:round;stroke-linejoin:round;stroke-width:.6495494842529297px" transform="scale(1.32287 1.32293)"/><path d="M251.75 265.16a1.34 1.34 0 0 1 .34-.84 1.1 1.1 0 0 1 .73-.35.87.87 0 0 1 .5.09.7.7 0 0 1 .32.36 1.16 1.16 0 0 1 .07.55 1.4 1.4 0 0 1-.17.58 1.1 1.1 0 0 1-.39.41 1.14 1.14 0 0 1-.51.17.85.85 0 0 1-.5-.1.7.7 0 0 1-.31-.36 1.1 1.1 0 0 1-.07-.51Zm.28 0a.74.74 0 0 0 .15.58.55.55 0 0 0 .48.17.77.77 0 0 0 .52-.26 1 1 0 0 0 .25-.64 1 1 0 0 0 0-.44.52.52 0 0 0-.22-.27.6.6 0 0 0-.36-.07.8.8 0 0 0-.51.24 1.06 1.06 0 0 0-.26.69Zm2.65.33.25-.05a.3.3 0 0 0 .09.23.35.35 0 0 0 .26.07.44.44 0 0 0 .26-.08.26.26 0 0 0 .1-.17.13.13 0 0 0-.06-.13 1 1 0 0 0-.25-.07 2 2 0 0 1-.37-.1.3.3 0 0 1-.14-.14.35.35 0 0 1 0-.2.44.44 0 0 1 .07-.19.5.5 0 0 1 .14-.15.6.6 0 0 1 .17-.08.8.8 0 0 1 .22 0 .8.8 0 0 1 .3 0 .33.33 0 0 1 .18.13.5.5 0 0 1 .06.23h-.25a.23.23 0 0 0-.08-.18.3.3 0 0 0-.22-.05.45.45 0 0 0-.25.07.2.2 0 0 0-.09.14.13.13 0 0 0 0 .09.2.2 0 0 0 .09.06l.21.05.36.1a.3.3 0 0 1 .15.13.34.34 0 0 1 0 .22.5.5 0 0 1-.1.25.6.6 0 0 1-.23.19.8.8 0 0 1-.32.08.6.6 0 0 1-.42-.1.47.47 0 0 1-.15-.35Zm2.55-.18h.25a.8.8 0 0 1-.27.37.77.77 0 0 1-.44.15.57.57 0 0 1-.49-.18.7.7 0 0 1-.12-.56 1 1 0 0 1 .26-.6.76.76 0 0 1 .52-.24.53.53 0 0 1 .46.18.74.74 0 0 1 .12.57v.07l-1.1.05a.5.5 0 0 0 .09.37.34.34 0 0 0 .29.12.44.44 0 0 0 .24-.09.6.6 0 0 0 .18-.24Zm-.77-.37h.82a.46.46 0 0 0-.06-.28.32.32 0 0 0-.29-.13.46.46 0 0 0-.3.13.57.57 0 0 0-.17.32Zm1.24.93h.24a.2.2 0 0 0 .06.16.36.36 0 0 0 .25.06.5.5 0 0 0 .28-.08.44.44 0 0 0 .15-.21 2 2 0 0 0 .06-.33.6.6 0 0 1-.43.22.46.46 0 0 1-.45-.2.78.78 0 0 1-.1-.53 1.2 1.2 0 0 1 .12-.4.8.8 0 0 1 .26-.29.7.7 0 0 1 .35-.12.44.44 0 0 1 .41.2v-.18h.23l-.15 1.31a1.4 1.4 0 0 1-.13.5.67.67 0 0 1-.25.24.85.85 0 0 1-.38.1.6.6 0 0 1-.41-.1.36.36 0 0 1-.11-.36Zm.31-.92a.6.6 0 0 0 .07.43.3.3 0 0 0 .27.12.44.44 0 0 0 .3-.15.75.75 0 0 0 .17-.43.56.56 0 0 0-.07-.41.31.31 0 0 0-.27-.13.43.43 0 0 0-.3.15.73.73 0 0 0-.16.42Zm1.31.71.2-1.51h.22v.21a.7.7 0 0 1 .21-.18.6.6 0 0 1 .27-.08.42.42 0 0 1 .26.06.3.3 0 0 1 .12.19.64.64 0 0 1 .49-.28.38.38 0 0 1 .32.11.48.48 0 0 1 .07.38l-.14 1h-.25l.13-1a.7.7 0 0 0 0-.22.17.17 0 0 0-.07-.11.24.24 0 0 0-.14 0 .4.4 0 0 0-.27.11.56.56 0 0 0-.15.34l-.12.88h-.25l.13-1a.4.4 0 0 0 0-.25.19.19 0 0 0-.19-.08.4.4 0 0 0-.2.06.4.4 0 0 0-.15.17 1 1 0 0 0-.08.32l-.1.79Zm3.45-.63h.25a.8.8 0 0 1-.27.37.77.77 0 0 1-.44.14.56.56 0 0 1-.49-.19.72.72 0 0 1-.11-.57 1 1 0 0 1 .27-.6.76.76 0 0 1 .52-.23.52.52 0 0 1 .45.19.74.74 0 0 1 .11.58v.07h-1.1a.5.5 0 0 0 .09.38.34.34 0 0 0 .29.12.43.43 0 0 0 .24-.08.6.6 0 0 0 .19-.24Zm-.76-.39h.82a.46.46 0 0 0-.06-.28.32.32 0 0 0-.29-.14.46.46 0 0 0-.31.13.57.57 0 0 0-.17.32Zm1.28.86.2-1.51h.22v.21a.63.63 0 0 1 .5-.26.55.55 0 0 1 .24 0 .3.3 0 0 1 .15.12.4.4 0 0 1 .05.19 2 2 0 0 1 0 .25l-.12.93h-.25l.12-.92a.7.7 0 0 0 0-.23.2.2 0 0 0-.09-.12.3.3 0 0 0-.17 0 .47.47 0 0 0-.29.11.6.6 0 0 0-.17.4l-.11.83Zm2.16-.29v.23h-.19a.37.37 0 0 1-.2 0 .2.2 0 0 1-.09-.11 1 1 0 0 1 0-.3l.13-.87h-.18v-.2h.18l.06-.38.27-.16-.08.53h.25v.2h-.25l-.13.89a.5.5 0 0 0 0 .14h.08Zm.23-.55a.94.94 0 0 1 .32-.66.78.78 0 0 1 .49-.17.55.55 0 0 1 .46.2.7.7 0 0 1 .11.56 1.15 1.15 0 0 1-.15.46.8.8 0 0 1-.29.26.8.8 0 0 1-.37.1.55.55 0 0 1-.47-.2.74.74 0 0 1-.1-.58Zm.26 0a.6.6 0 0 0 .06.43.33.33 0 0 0 .29.14.46.46 0 0 0 .33-.15.8.8 0 0 0 .19-.45.58.58 0 0 0-.06-.42.33.33 0 0 0-.29-.14.46.46 0 0 0-.33.15.76.76 0 0 0-.19.44m3.17.24h.25a.8.8 0 0 1-.28.36.76.76 0 0 1-.44.13.56.56 0 0 1-.48-.2.72.72 0 0 1-.1-.57 1 1 0 0 1 .28-.6.75.75 0 0 1 .53-.22.52.52 0 0 1 .45.2.75.75 0 0 1 .1.58v.07h-1.1a.52.52 0 0 0 .08.38.34.34 0 0 0 .29.13.43.43 0 0 0 .24-.08.6.6 0 0 0 .19-.24Zm-.76-.4h.82a.46.46 0 0 0-.05-.28.32.32 0 0 0-.29-.14.46.46 0 0 0-.31.12.57.57 0 0 0-.18.32Zm1.23.85.35-2.09h.25l-.35 2.09Zm.94-1.8v-.3h.25v.3Zm-.3 1.79.25-1.51h.25l-.25 1.51Zm.63 0 .25-1.51h.22v.21a.7.7 0 0 1 .21-.18.56.56 0 0 1 .27-.07.4.4 0 0 1 .26.07.3.3 0 0 1 .11.2.63.63 0 0 1 .5-.26.37.37 0 0 1 .31.13.5.5 0 0 1 .05.38l-.17 1h-.25l.16-1a.7.7 0 0 0 0-.22.18.18 0 0 0-.07-.11.24.24 0 0 0-.14 0 .4.4 0 0 0-.27.11.56.56 0 0 0-.16.34l-.15.88h-.25l.16-1a.4.4 0 0 0 0-.26.19.19 0 0 0-.18-.09.4.4 0 0 0-.2.06.4.4 0 0 0-.16.17 1 1 0 0 0-.09.32l-.13.79Zm2.66-1.79v-.3h.25v.3Zm-.3 1.79.25-1.51h.25l-.25 1.51Zm.63 0 .28-1.51h.22v.21a.62.62 0 0 1 .51-.24.54.54 0 0 1 .23.05.3.3 0 0 1 .14.13.44.44 0 0 1 0 .19 2 2 0 0 1 0 .25l-.17.93h-.25l.17-.92a.7.7 0 0 0 0-.24.2.2 0 0 0-.08-.13.3.3 0 0 0-.16-.05.46.46 0 0 0-.29.1.62.62 0 0 0-.19.39l-.15.83Zm2.55-.13a1.2 1.2 0 0 1-.3.17.8.8 0 0 1-.28 0 .45.45 0 0 1-.35-.13.36.36 0 0 1-.07-.31.5.5 0 0 1 .09-.2.5.5 0 0 1 .15-.14.7.7 0 0 1 .19-.08h.23a2.4 2.4 0 0 0 .46-.08v-.07a.26.26 0 0 0 0-.22.35.35 0 0 0-.27-.09.5.5 0 0 0-.27.06.5.5 0 0 0-.16.22h-.24a.8.8 0 0 1 .16-.26.6.6 0 0 1 .25-.15 1 1 0 0 1 .34 0 .8.8 0 0 1 .3.05.32.32 0 0 1 .15.12.36.36 0 0 1 0 .18 2 2 0 0 1 0 .24l-.06.34a4 4 0 0 0-.07.45.5.5 0 0 0 0 .18h-.26a.5.5 0 0 1 0-.19Zm.08-.57a2 2 0 0 1-.42.09h-.23a.27.27 0 0 0-.17.2.19.19 0 0 0 0 .17.27.27 0 0 0 .21.07.55.55 0 0 0 .27-.06.5.5 0 0 0 .2-.17.7.7 0 0 0 .09-.26v-.09Zm1.45.77v-.19a.54.54 0 0 1-.45.22.5.5 0 0 1-.3-.11.52.52 0 0 1-.17-.33 1 1 0 0 1 0-.41 1.3 1.3 0 0 1 .15-.41.75.75 0 0 1 .27-.28.65.65 0 0 1 .34-.09.4.4 0 0 1 .22.06.4.4 0 0 1 .14.15l.14-.75h.25l-.38 2.09Zm-.64-.77a.62.62 0 0 0 0 .44.29.29 0 0 0 .25.15.4.4 0 0 0 .3-.13.76.76 0 0 0 .19-.42.68.68 0 0 0 0-.46.29.29 0 0 0-.26-.15.4.4 0 0 0-.3.13.8.8 0 0 0-.19.44Zm1.32 0a1 1 0 0 1 .34-.62.77.77 0 0 1 .49-.16.54.54 0 0 1 .46.22.7.7 0 0 1 .09.57 1.2 1.2 0 0 1-.17.46.79.79 0 0 1-.66.34.55.55 0 0 1-.46-.21.75.75 0 0 1-.08-.59Zm.25 0a.6.6 0 0 0 0 .44.32.32 0 0 0 .28.15.46.46 0 0 0 .33-.14.8.8 0 0 0 .2-.44.6.6 0 0 0 0-.43.32.32 0 0 0-.28-.15.46.46 0 0 0-.33.14.77.77 0 0 0-.2.43m2 .82.28-1.51h.22v.23a.8.8 0 0 1 .2-.21.3.3 0 0 1 .17 0 .4.4 0 0 1 .24.09l-.13.24a.3.3 0 0 0-.17-.06.27.27 0 0 0-.16 0 .35.35 0 0 0-.12.14 1.2 1.2 0 0 0-.1.3l-.15.79Zm2-.43h.25a.8.8 0 0 1-.3.35.75.75 0 0 1-.44.11.55.55 0 0 1-.47-.23.74.74 0 0 1-.07-.58 1 1 0 0 1 .31-.59.74.74 0 0 1 .53-.19.52.52 0 0 1 .44.23.77.77 0 0 1 .07.59v.07h-1.09a.53.53 0 0 0 .06.39.33.33 0 0 0 .28.15.42.42 0 0 0 .25-.06.6.6 0 0 0 .2-.23Zm-.73-.45h.81a.47.47 0 0 0 0-.29.31.31 0 0 0-.28-.16.45.45 0 0 0-.31.11.58.58 0 0 0-.19.31Zm1.19.47h.25a.3.3 0 0 0 .07.24.34.34 0 0 0 .25.09.42.42 0 0 0 .27-.06.27.27 0 0 0 .12-.17.14.14 0 0 0 0-.14 1 1 0 0 0-.23-.1 2 2 0 0 1-.35-.14.3.3 0 0 1-.13-.15.36.36 0 0 1 0-.2.5.5 0 0 1 .08-.19.5.5 0 0 1 .15-.14.6.6 0 0 1 .17-.07.8.8 0 0 1 .22 0 .8.8 0 0 1 .29.06.33.33 0 0 1 .16.15.5.5 0 0 1 0 .24h-.25a.24.24 0 0 0-.06-.19.3.3 0 0 0-.21-.07.44.44 0 0 0-.25 0 .2.2 0 0 0-.1.13.13.13 0 0 0 0 .09.17.17 0 0 0 .08.07l.2.07.34.13a.3.3 0 0 1 .14.14.36.36 0 0 1 0 .22.53.53 0 0 1-.12.24.6.6 0 0 1-.24.17.8.8 0 0 1-.32 0 .58.58 0 0 1-.41-.14.5.5 0 0 1-.12-.37Zm1.3 1.09.42-2.09h.22v.2a.7.7 0 0 1 .21-.17.5.5 0 0 1 .25 0 .47.47 0 0 1 .47.4 1 1 0 0 1 0 .4 1.2 1.2 0 0 1-.16.41.8.8 0 0 1-.29.28.66.66 0 0 1-.34.09.4.4 0 0 1-.34-.21l-.15.74Zm.49-1.32a.63.63 0 0 0 0 .44.29.29 0 0 0 .25.15.42.42 0 0 0 .31-.13.8.8 0 0 0 .21-.44.64.64 0 0 0 0-.44.28.28 0 0 0-.24-.16.42.42 0 0 0-.31.14.8.8 0 0 0-.21.44Zm2.28.36h.25a.8.8 0 0 1-.3.35.74.74 0 0 1-.44.11.55.55 0 0 1-.47-.22.74.74 0 0 1-.07-.58 1 1 0 0 1 .31-.59.74.74 0 0 1 .53-.19.52.52 0 0 1 .44.23.76.76 0 0 1 .07.59v.07h-1.09a.53.53 0 0 0 .06.39.33.33 0 0 0 .28.15.42.42 0 0 0 .25-.06.6.6 0 0 0 .2-.23Zm-.73-.45h.81a.5.5 0 0 0 0-.29.31.31 0 0 0-.28-.16.45.45 0 0 0-.31.11.57.57 0 0 0-.19.31Zm1.55-.84.06-.3h.25l-.06.3Zm-.36 1.79.3-1.51h.25l-.3 1.51Zm1.21-.18v.23h-.19a.37.37 0 0 1-.2-.05.2.2 0 0 1-.08-.12 1 1 0 0 1 0-.3l.17-.87h-.18v-.2h.18l.08-.38.28-.14-.11.53h.25v.2H289l-.18.88a.5.5 0 0 0 0 .14.1.1 0 0 0 0 .05h.08Zm1.14.09a1.2 1.2 0 0 1-.3.16.8.8 0 0 1-.28 0 .45.45 0 0 1-.34-.14.36.36 0 0 1-.07-.32.5.5 0 0 1 .09-.2.5.5 0 0 1 .16-.14.7.7 0 0 1 .19-.08h.23a2.4 2.4 0 0 0 .46-.07v-.07a.26.26 0 0 0 0-.22.35.35 0 0 0-.26-.1.47.47 0 0 0-.27.05.5.5 0 0 0-.17.22h-.23a.8.8 0 0 1 .16-.26.6.6 0 0 1 .25-.14 1 1 0 0 1 .34 0 .8.8 0 0 1 .29.06.32.32 0 0 1 .15.12.36.36 0 0 1 0 .18 2 2 0 0 1 0 .24l-.07.34a4 4 0 0 0-.08.45.5.5 0 0 0 0 .18h-.26a.5.5 0 0 1 0-.19Zm.09-.57a2 2 0 0 1-.42.08h-.23a.27.27 0 0 0-.17.2.2.2 0 0 0 0 .17.27.27 0 0 0 .2.08.55.55 0 0 0 .27-.05.5.5 0 0 0 .2-.17.7.7 0 0 0 .09-.25v-.09Zm1.31.09a1 1 0 0 1 .35-.61.76.76 0 0 1 .49-.15.54.54 0 0 1 .45.22.72.72 0 0 1 .08.57 1.2 1.2 0 0 1-.18.46.79.79 0 0 1-.67.33.54.54 0 0 1-.45-.22.76.76 0 0 1-.07-.59Zm.25 0a.6.6 0 0 0 0 .44.32.32 0 0 0 .28.16.45.45 0 0 0 .34-.13.8.8 0 0 0 .21-.44.6.6 0 0 0 0-.43.32.32 0 0 0-.28-.16.45.45 0 0 0-.34.13.77.77 0 0 0-.21.43m1.9 1.43.45-2.09h.22v.2a.7.7 0 0 1 .22-.16.5.5 0 0 1 .25 0 .5.5 0 0 1 .31.12.5.5 0 0 1 .15.29 1 1 0 0 1 0 .4 1.2 1.2 0 0 1-.17.41.8.8 0 0 1-.29.27.66.66 0 0 1-.34.08.4.4 0 0 1-.21-.07.4.4 0 0 1-.13-.15l-.16.74Zm.51-1.31a.63.63 0 0 0 0 .44.29.29 0 0 0 .24.16.4.4 0 0 0 .31-.13.83.83 0 0 0 .21-.44.64.64 0 0 0 0-.44.28.28 0 0 0-.24-.16.42.42 0 0 0-.31.14.83.83 0 0 0-.22.44Zm1.17.83.33-1.51h.22v.23a.8.8 0 0 1 .2-.2.3.3 0 0 1 .17 0 .4.4 0 0 1 .23.1l-.14.23a.3.3 0 0 0-.17-.07.26.26 0 0 0-.16 0 .35.35 0 0 0-.12.13 1.2 1.2 0 0 0-.11.3l-.17.79Zm1-.69a1 1 0 0 1 .36-.61.76.76 0 0 1 .49-.14.54.54 0 0 1 .44.23.72.72 0 0 1 .07.58 1.2 1.2 0 0 1-.18.45.78.78 0 0 1-.67.32.54.54 0 0 1-.45-.23.76.76 0 0 1-.06-.6m.25 0a.62.62 0 0 0 0 .44.32.32 0 0 0 .27.16.45.45 0 0 0 .34-.13.8.8 0 0 0 .22-.44.6.6 0 0 0 0-.43.32.32 0 0 0-.27-.16.45.45 0 0 0-.34.13.78.78 0 0 0-.22.43m1.61-.92.06-.3h.25l-.06.3Zm-.83 2.36.09-.21h.11a.15.15 0 0 0 .12 0 .6.6 0 0 0 .09-.26l.35-1.59h.25l-.35 1.59a.9.9 0 0 1-.15.38.38.38 0 0 1-.33.13h-.19Zm2.16-1h.25a.8.8 0 0 1-.3.35.74.74 0 0 1-.44.1.55.55 0 0 1-.46-.23.75.75 0 0 1-.06-.58 1 1 0 0 1 .32-.58.73.73 0 0 1 .53-.18.51.51 0 0 1 .43.23.77.77 0 0 1 .06.59v.07l-1.08-.06a.53.53 0 0 0 .05.39.33.33 0 0 0 .27.15.4.4 0 0 0 .25-.06.6.6 0 0 0 .2-.23Zm-.72-.46h.81a.5.5 0 0 0 0-.29.31.31 0 0 0-.27-.17.44.44 0 0 0-.31.1.58.58 0 0 0-.2.31Zm2.35.49h.23a.8.8 0 0 1-.29.4.66.66 0 0 1-.43.12.52.52 0 0 1-.43-.23.77.77 0 0 1-.05-.59 1.2 1.2 0 0 1 .17-.42.7.7 0 0 1 .3-.26.76.76 0 0 1 .37-.07.5.5 0 0 1 .36.15.5.5 0 0 1 .12.37h-.25a.36.36 0 0 0-.07-.24.26.26 0 0 0-.19-.09.44.44 0 0 0-.33.12.8.8 0 0 0-.21.43.66.66 0 0 0 0 .45.3.3 0 0 0 .26.16.4.4 0 0 0 .26-.08.57.57 0 0 0 .19-.28Zm.91.43v.23h-.19a.36.36 0 0 1-.2-.06.2.2 0 0 1-.08-.12 1 1 0 0 1 0-.3l.2-.87h-.18v-.2h.3l.09-.37.28-.13-.12.53h.25v.2h-.25l-.21.88a.5.5 0 0 0 0 .14.1.1 0 0 0 0 .05h.08Zm.27-.51a1 1 0 0 1 .37-.6.75.75 0 0 1 .49-.13.54.54 0 0 1 .44.24.73.73 0 0 1 .06.58 1.2 1.2 0 0 1-.19.45.78.78 0 0 1-.67.31.54.54 0 0 1-.44-.24.77.77 0 0 1 0-.6Zm.25 0a.62.62 0 0 0 0 .44.32.32 0 0 0 .27.17.45.45 0 0 0 .34-.12.8.8 0 0 0 .22-.43.6.6 0 0 0 0-.43.32.32 0 0 0-.27-.17.45.45 0 0 0-.34.12.8.8 0 0 0-.22.42m2.92 1v-.19a.53.53 0 0 1-.46.19.48.48 0 0 1-.29-.12.53.53 0 0 1-.16-.3 1 1 0 0 1 0-.42 1.3 1.3 0 0 1 .17-.4.75.75 0 0 1 .28-.27.63.63 0 0 1 .35-.07.4.4 0 0 1 .22.08.4.4 0 0 1 .13.16l.18-.75h.24l-.49 2.08h-.23ZM305 266a.64.64 0 0 0 0 .44.29.29 0 0 0 .24.17.4.4 0 0 0 .3-.12.77.77 0 0 0 .21-.41.7.7 0 0 0 0-.46.29.29 0 0 0-.25-.17.4.4 0 0 0-.31.12.83.83 0 0 0-.21.43Zm2.32.48.24.06a.8.8 0 0 1-.31.34.73.73 0 0 1-.44.09.55.55 0 0 1-.45-.25.76.76 0 0 1 0-.59 1 1 0 0 1 .34-.57.72.72 0 0 1 .54-.16.51.51 0 0 1 .42.25.78.78 0 0 1 0 .6v.07l-1.07-.1a.55.55 0 0 0 0 .39.33.33 0 0 0 .27.16.4.4 0 0 0 .25-.05.6.6 0 0 0 .21-.22Zm-.7-.49.8.08a.5.5 0 0 0 0-.29.31.31 0 0 0-.26-.18.44.44 0 0 0-.31.09.58.58 0 0 0-.21.3Zm3.53.53.25.1a1.2 1.2 0 0 1-.43.49.9.9 0 0 1-.57.13.8.8 0 0 1-.49-.19.7.7 0 0 1-.21-.43 1.5 1.5 0 0 1 0-.57 1.5 1.5 0 0 1 .26-.56 1.06 1.06 0 0 1 .94-.41.68.68 0 0 1 .46.21.7.7 0 0 1 .17.47h-.27a.55.55 0 0 0-.12-.35.45.45 0 0 0-.3-.14.7.7 0 0 0-.41.08.76.76 0 0 0-.29.29 1.5 1.5 0 0 0-.16.39 1.3 1.3 0 0 0 0 .47.48.48 0 0 0 .16.32.55.55 0 0 0 .31.13.63.63 0 0 0 .41-.1.86.86 0 0 0 .31-.38Zm.48 0a1 1 0 0 1 .39-.59.74.74 0 0 1 .49-.12.53.53 0 0 1 .43.26.74.74 0 0 1 0 .58 1.2 1.2 0 0 1-.21.45.8.8 0 0 1-.31.23.75.75 0 0 1-.37.05.54.54 0 0 1-.43-.26.78.78 0 0 1 0-.61Zm.25 0a.63.63 0 0 0 0 .45.32.32 0 0 0 .26.18.44.44 0 0 0 .34-.11.8.8 0 0 0 .24-.43.6.6 0 0 0 0-.44.32.32 0 0 0-.26-.18.44.44 0 0 0-.34.11.78.78 0 0 0-.24.42m1.17.91.56-2.08h.24l-.56 2.08zm1.56.19.06-.22a.62.62 0 0 1-.52.2.5.5 0 0 1-.22-.08.32.32 0 0 1-.13-.15.45.45 0 0 1 0-.2 1.5 1.5 0 0 1 0-.24l.25-.93h.24l-.22.83a2 2 0 0 0-.06.27.23.23 0 0 0 .05.17.25.25 0 0 0 .17.08.43.43 0 0 0 .22 0 .4.4 0 0 0 .18-.14 1 1 0 0 0 .12-.29l.22-.81h.24l-.4 1.51h-.22Zm.57.07.4-1.51h.22l-.06.21a.7.7 0 0 1 .23-.16.54.54 0 0 1 .27 0 .4.4 0 0 1 .24.1.3.3 0 0 1 .09.21.61.61 0 0 1 .51-.21.37.37 0 0 1 .29.16.52.52 0 0 1 0 .39l-.28 1h-.24l.25-.95a.8.8 0 0 0 0-.22.18.18 0 0 0-.06-.12.23.23 0 0 0-.13-.06.38.38 0 0 0-.28.08.57.57 0 0 0-.19.33l-.23.87h-.24l.26-1a.43.43 0 0 0 0-.26.19.19 0 0 0-.17-.11.4.4 0 0 0-.2 0 .4.4 0 0 0-.17.15 1.1 1.1 0 0 0-.12.31l-.21.78h-.24Zm2.52.33h-.22l.59-2.07h.24l-.21.74a.55.55 0 0 1 .45-.15.5.5 0 0 1 .23.09.4.4 0 0 1 .15.18.7.7 0 0 1 0 .26 1.22 1.22 0 0 1-.4.88.65.65 0 0 1-.49.15.38.38 0 0 1-.33-.28l-.05.19Zm.21-.76a.8.8 0 0 0 0 .4.29.29 0 0 0 .25.24.4.4 0 0 0 .32-.11.8.8 0 0 0 .24-.42.67.67 0 0 0 0-.45.28.28 0 0 0-.23-.18.4.4 0 0 0-.31.11.8.8 0 0 0-.24.4Zm2.08.88a1.1 1.1 0 0 1-.31.14.8.8 0 0 1-.28 0 .44.44 0 0 1-.33-.17.38.38 0 0 1 0-.33.5.5 0 0 1 .11-.2.5.5 0 0 1 .17-.13.7.7 0 0 1 .2-.06h.22a2.3 2.3 0 0 0 .46 0v-.07a.27.27 0 0 0 0-.23.34.34 0 0 0-.23-.09.45.45 0 0 0-.27 0 .5.5 0 0 0-.18.21l-.23-.07a.8.8 0 0 1 .18-.24.6.6 0 0 1 .26-.12 1 1 0 0 1 .34 0 .8.8 0 0 1 .28.09.32.32 0 0 1 .14.14.4.4 0 0 1 0 .18 2 2 0 0 1-.06.24l-.1.34a4 4 0 0 0-.11.45.6.6 0 0 0 0 .19H319a.5.5 0 0 1 0-.19Zm.14-.57a2 2 0 0 1-.42 0h-.23a.26.26 0 0 0-.12.07.3.3 0 0 0-.07.12.2.2 0 0 0 0 .18.27.27 0 0 0 .19.1.5.5 0 0 0 .27 0 .5.5 0 0 0 .25-.04.7.7 0 0 0 .11-.25v-.09Zm.4.87L320 267h.22l-.06.21a.59.59 0 0 1 .53-.18.5.5 0 0 1 .22.08.3.3 0 0 1 .12.15.5.5 0 0 1 0 .2 2 2 0 0 1-.06.25l-.28.92h-.24l.28-.91a.8.8 0 0 0 0-.24.2.2 0 0 0-.06-.14.27.27 0 0 0-.15-.07.43.43 0 0 0-.3.06.64.64 0 0 0-.23.37l-.25.82h-.24Zm1.64-.53a1 1 0 0 1 .41-.58.73.73 0 0 1 .5-.1.53.53 0 0 1 .42.28.75.75 0 0 1 0 .59 1.2 1.2 0 0 1-.22.44.75.75 0 0 1-.32.22.73.73 0 0 1-.37 0 .53.53 0 0 1-.42-.28.8.8 0 0 1 0-.61Zm.25 0a.64.64 0 0 0 0 .45.32.32 0 0 0 .26.19.43.43 0 0 0 .34-.1.8.8 0 0 0 .25-.42.62.62 0 0 0 0-.44.32.32 0 0 0-.25-.19.44.44 0 0 0-.34.1.8.8 0 0 0-.25.41Z" style="fill:#231f20;fill-rule:evenodd" transform="scale(1.32287 1.32293)"/><path style="fill:none;stroke:#ed1b2e;stroke-linecap:round;stroke-linejoin:round;stroke-width:1.0592727661132812px" d="m333.37 263.91-6.13 10.87" transform="scale(1.32287 1.32293)"/><path d="M177.91 163.86c34.49-.45 193.79 97.34 194.26 115.35l-9.87 15.13c-4.45-20.91-166.09-116.07-192.76-114.27l8.37-16.2Z" style="fill:#fff200;fill-rule:evenodd" transform="scale(1.32287 1.32293)"/><path d="m371.45 280.49-8.37 13M177.65 164.71l-7.78 14.42" style="fill:none;stroke:#231f20;stroke-linecap:round;stroke-linejoin:round;stroke-width:.647901177406311px" transform="scale(1.32287 1.32293)"/><path d="M168.55 179.48c6.4-4.34 53.45 16.62 102.68 46.3s96 63.41 91.78 69.7l-1.39 2.19-.64.5c.14-.1.84-1-.07-3.29-2.09-6.88-35.37-33.44-90.59-66.78-53.83-32.1-98.7-51.44-103.18-45.92l1.41-2.71Zm204.61 100.83c4-8-39.59-40.87-93.7-72.88-55.35-31.37-95.24-49.83-102.53-44.33l-1.62 2.95c0 .16.06-.2.4-.46 1.33-1.16 3.52-1.08 4.51-1.1 12.55.19 48.38 16.68 98.66 45.5 22 12.83 93.06 58.38 92.79 71.19 0 1.1.09 1.33-.32 1.87l1.81-2.75Z" style="fill:#fff200;stroke:#231f20;stroke-linecap:round;stroke-linejoin:round;stroke-width:.6479316353797913px;fill-rule:evenodd" transform="scale(1.32287 1.32293)"/><path d="M204.78 239.25A67.83 67.83 0 0 0 272 306.51a67.43 67.43 0 0 0 67.42-67.2v-89.79l-134.64-.16z" style="fill:#fff;stroke:#231f20;stroke-miterlimit:2.613100051879883;stroke-width:.7596526145935059px" transform="scale(1.32287 1.32293)"/><path d="M207.3 239.38a63.94 63.94 0 0 0 19 45.37 64.46 64.46 0 0 0 91.21.1 63.93 63.93 0 0 0 18.94-45.4v-87.07H207.37l-.08 87Zm103.21-60.94v61.3a43 43 0 0 1-.27 4.8 37.65 37.65 0 0 1-11 22.35 38.55 38.55 0 0 1-27.27 11.27 39 39 0 0 1-38.39-38.6V178.3l77 .14Z" style="fill:#ed1c24;stroke:#231f20;stroke-miterlimit:2.613100051879883;stroke-width:.5738998651504517px" transform="scale(1.32287 1.32293)"/><path d="M263.79 229.49a9.46 9.46 0 0 0 2.51 6.51 8.07 8.07 0 0 0 12 0 9.46 9.46 0 0 0 2.5-6.46V217.3h-17v12.21Z" style="fill:#2e2c70" transform="scale(1.32287 1.32293)"/><path d="M277.11 220.25a1.68 1.68 0 1 0 1.69 1.68 1.69 1.69 0 0 0-1.69-1.68m-4.72 4.53a1.68 1.68 0 1 0 1.68 1.68 1.69 1.69 0 0 0-1.68-1.68m4.71 4.73a1.68 1.68 0 1 0 1.69 1.68 1.69 1.69 0 0 0-1.69-1.68m-9.2.01a1.68 1.68 0 1 0 1.68 1.68 1.69 1.69 0 0 0-1.68-1.68m-.01-9.27a1.68 1.68 0 1 0 1.68 1.68 1.69 1.69 0 0 0-1.68-1.68" style="fill:#fff;fill-rule:evenodd" transform="scale(1.32287 1.32293)"/><path d="M263.71 258.73a9.46 9.46 0 0 0 2.51 6.45 8.07 8.07 0 0 0 12 0 9.46 9.46 0 0 0 2.5-6.46v-12.19h-17v12.21Z" style="fill:#2e2c70" transform="scale(1.32287 1.32293)"/><path d="M277 249.49a1.68 1.68 0 1 0 1.68 1.68 1.69 1.69 0 0 0-1.68-1.68m-4.69 4.51a1.68 1.68 0 1 0 1.69 1.7 1.69 1.69 0 0 0-1.68-1.68Zm4.69 4.74a1.68 1.68 0 1 0 1.68 1.68 1.69 1.69 0 0 0-1.68-1.68m-9.18.02a1.68 1.68 0 1 0 1.68 1.68 1.69 1.69 0 0 0-1.68-1.68m-.02-9.28a1.68 1.68 0 1 0 1.68 1.68 1.69 1.69 0 0 0-1.68-1.68" style="fill:#fff;fill-rule:evenodd" transform="scale(1.32287 1.32293)"/><path d="M240.2 229.55a9.46 9.46 0 0 0 2.51 6.45 8.07 8.07 0 0 0 12 0 9.46 9.46 0 0 0 2.5-6.46v-12.18h-17v12.21Z" style="fill:#2e2c70" transform="scale(1.32287 1.32293)"/><path d="M253.53 220.31a1.68 1.68 0 1 0 1.68 1.68 1.69 1.69 0 0 0-1.68-1.68m-4.72 4.53a1.68 1.68 0 1 0 1.68 1.68 1.69 1.69 0 0 0-1.68-1.68m4.71 4.73a1.68 1.68 0 1 0 1.69 1.68 1.69 1.69 0 0 0-1.69-1.68m-9.2.01a1.68 1.68 0 1 0 1.68 1.68 1.69 1.69 0 0 0-1.68-1.68m-.02-9.28a1.68 1.68 0 1 0 1.7 1.7 1.69 1.69 0 0 0-1.68-1.68Z" style="fill:#fff;fill-rule:evenodd" transform="scale(1.32287 1.32293)"/><path d="M287.31 229.54a9.46 9.46 0 0 0 2.51 6.45 8.07 8.07 0 0 0 12 0 9.46 9.46 0 0 0 2.5-6.46v-12.18h-17v12.21Z" style="fill:#2e2c70" transform="scale(1.32287 1.32293)"/><path d="M300.64 220.3a1.68 1.68 0 1 0 1.69 1.68 1.69 1.69 0 0 0-1.69-1.68m-4.73 4.53a1.68 1.68 0 1 0 1.68 1.68 1.69 1.69 0 0 0-1.68-1.68m4.72 4.73a1.68 1.68 0 1 0 1.69 1.68 1.69 1.69 0 0 0-1.69-1.68m-9.2.01a1.68 1.68 0 1 0 1.68 1.68 1.69 1.69 0 0 0-1.68-1.68m-.02-9.28a1.68 1.68 0 1 0 1.68 1.68 1.69 1.69 0 0 0-1.68-1.68" style="fill:#fff;fill-rule:evenodd" transform="scale(1.32287 1.32293)"/><path d="M263.78 200a9.46 9.46 0 0 0 2.51 6.45 8.07 8.07 0 0 0 12 0 9.46 9.46 0 0 0 2.5-6.46V187.8h-17v12.21Z" style="fill:#2e2c70" transform="scale(1.32287 1.32293)"/><path d="M277.11 190.76a1.68 1.68 0 1 0 1.68 1.68 1.69 1.69 0 0 0-1.68-1.68m-4.73 4.53a1.68 1.68 0 1 0 1.69 1.68 1.69 1.69 0 0 0-1.69-1.68m4.72 4.71a1.68 1.68 0 1 0 1.69 1.68 1.69 1.69 0 0 0-1.69-1.68m-9.2 0a1.68 1.68 0 1 0 1.69 1.68 1.69 1.69 0 0 0-1.69-1.68m-.02-9.25a1.68 1.68 0 1 0 1.69 1.68 1.69 1.69 0 0 0-1.69-1.68" style="fill:#fff;fill-rule:evenodd" transform="scale(1.32287 1.32293)"/><path d="M215.66 175.1c.15-6.26 4.6-7.74 4.63-7.76s4.8 1.6 4.78 7.82z" style="fill:#fff200;fill-rule:evenodd" transform="scale(1.32287 1.32293)"/><path d="m211.82 167.45-.77 7.19h4.69c0-6 4.51-6.94 4.61-6.92s4.52 1.32 4.64 6.92h4.71l-.85-7.25h-17Z" style="fill:#fff200;stroke:#231f20;stroke-miterlimit:2.613100051879883;stroke-width:.5659778714179993px;fill-rule:evenodd" transform="scale(1.32287 1.32293)"/><path d="M210.74 174.68H230a.83.83 0 0 1 .74.89.83.83 0 0 1-.74.89h-19.26a.83.83 0 0 1-.74-.89.83.83 0 0 1 .74-.89Z" style="fill:#fff200;stroke:#231f20;stroke-miterlimit:2.613100051879883;stroke-width:.5660396814346313px;fill-rule:evenodd" transform="scale(1.32287 1.32293)"/><path d="M217.73 174.65c0-3.76 2.56-4.82 2.58-4.82a5 5 0 0 1 2.68 4.82Z" style="fill:#fff200;stroke:#231f20;stroke-miterlimit:2.613100051879883;stroke-width:.5657514333724976px;fill-rule:evenodd" transform="scale(1.32287 1.32293)"/><path d="M211.14 164.47h18.42a.76.76 0 0 1 .71.8.76.76 0 0 1-.71.8h-18.42a.76.76 0 0 1-.71-.8.76.76 0 0 1 .71-.8Z" style="fill:#fff200;stroke:#231f20;stroke-miterlimit:2.613100051879883;stroke-width:.5658028721809387px;fill-rule:evenodd" transform="scale(1.32287 1.32293)"/><path d="M211.53 166.07h17.62a.75.75 0 0 1 .68.8.75.75 0 0 1-.68.8h-17.62a.75.75 0 0 1-.68-.8.75.75 0 0 1 .68-.8Z" style="fill:#fff200;stroke:#231f20;stroke-miterlimit:2.613100051879883;stroke-width:.5658028721809387px;fill-rule:evenodd" transform="scale(1.32287 1.32293)"/><path d="M217.23 154.07h1.39v1h1v-1h1.43v1h1v-1h1.43v2.28a.59.59 0 0 1-.62.59h-5a.64.64 0 0 1-.65-.6v-2.25Z" style="fill:#fff200;stroke:#231f20;stroke-miterlimit:2.613100051879883;stroke-width:.5656973123550415px;fill-rule:evenodd" transform="scale(1.32287 1.32293)"/><path style="fill:#fff200;stroke:#231f20;stroke-miterlimit:2.613100051879883;stroke-width:.5657543540000916px;fill-rule:evenodd" d="m222.47 157.12.31 7.32-4.88-.02.32-7.32z" transform="scale(1.32287 1.32293)"/><path d="M223.28 157.64h1.36v1h1v-1H227v1h1v-1h1.4v2.28a.59.59 0 0 1-.61.59h-4.9a.63.63 0 0 1-.63-.6v-2.25Z" style="fill:#fff200;stroke:#231f20;stroke-miterlimit:2.613100051879883;stroke-width:.5656973719596863px;fill-rule:evenodd" transform="scale(1.32287 1.32293)"/><path style="fill:#fff200;stroke:#231f20;stroke-miterlimit:2.613100051879883;stroke-width:.5657029151916504px;fill-rule:evenodd" d="m228.54 160.5.15 3.94h-4.68l.13-3.94z" transform="scale(1.32287 1.32293)"/><path d="M211.25 157.66h1.36v1h1v-1H215v1h1v-1h1.4v2.28a.59.59 0 0 1-.61.59h-4.9a.63.63 0 0 1-.63-.6v-2.25Z" style="fill:#fff200;stroke:#231f20;stroke-miterlimit:2.613100051879883;stroke-width:.5656973719596863px;fill-rule:evenodd" transform="scale(1.32287 1.32293)"/><path style="fill:#fff200;stroke:#231f20;stroke-miterlimit:2.613100051879883;stroke-width:.5657029151916504px;fill-rule:evenodd" d="m216.51 160.51.15 3.94h-4.68l.13-3.94z" transform="scale(1.32287 1.32293)"/><path d="M219.86 159.43a.49.49 0 1 1 1 0v1.74h-1zm6.02 2.57a.47.47 0 1 1 .94 0v1.35h-.94zm-12.06 0a.47.47 0 1 1 .94 0v1.35h-.94z" style="fill:#231f20;fill-rule:evenodd" transform="scale(1.32287 1.32293)"/><path d="M269.06 154.08h1.39v1h1v-1h1.43v1h1v-1h1.43v2.28a.59.59 0 0 1-.62.59h-5a.64.64 0 0 1-.65-.6v-2.25Z" style="fill:#fff200;stroke:#231f20;stroke-miterlimit:2.613100051879883;stroke-width:.5656973123550415px;fill-rule:evenodd" transform="scale(1.32287 1.32293)"/><path style="fill:#fff200;stroke:#231f20;stroke-miterlimit:2.613100051879883;stroke-width:.5657543540000916px;fill-rule:evenodd" d="m274.3 157.13.31 7.32-4.88-.02.33-7.32z" transform="scale(1.32287 1.32293)"/><path d="M275.11 157.65h1.36v1h1v-1h1.39v1h1v-1h1.4v2.28a.59.59 0 0 1-.61.59h-4.9a.63.63 0 0 1-.63-.6v-2.25Z" style="fill:#fff200;stroke:#231f20;stroke-miterlimit:2.613100051879883;stroke-width:.5656973719596863px;fill-rule:evenodd" transform="scale(1.32287 1.32293)"/><path style="fill:#fff200;stroke:#231f20;stroke-miterlimit:2.613100051879883;stroke-width:.5657029151916504px;fill-rule:evenodd" d="m280.37 160.51.15 3.94h-4.68l.13-3.94z" transform="scale(1.32287 1.32293)"/><path d="M263.08 157.67h1.36v1h1v-1h1.39v1h1v-1h1.4v2.28a.59.59 0 0 1-.61.59h-4.9a.63.63 0 0 1-.63-.6v-2.25Z" style="fill:#fff200;stroke:#231f20;stroke-miterlimit:2.613100051879883;stroke-width:.5656973719596863px;fill-rule:evenodd" transform="scale(1.32287 1.32293)"/><path style="fill:#fff200;stroke:#231f20;stroke-miterlimit:2.613100051879883;stroke-width:.5657029151916504px;fill-rule:evenodd" d="m268.34 160.52.15 3.94h-4.68l.13-3.94z" transform="scale(1.32287 1.32293)"/><path d="M267.49 175.11c.15-6.26 4.6-7.74 4.63-7.76s4.8 1.6 4.78 7.82z" style="fill:#fff200;fill-rule:evenodd" transform="scale(1.32287 1.32293)"/><path d="m263.66 167.46-.77 7.19h4.69c0-6 4.51-6.94 4.61-6.92s4.52 1.31 4.64 6.92h4.71l-.85-7.25h-17Z" style="fill:#fff200;stroke:#231f20;stroke-miterlimit:2.613100051879883;stroke-width:.5659778714179993px;fill-rule:evenodd" transform="scale(1.32287 1.32293)"/><path d="M262.57 174.69h19.21a.83.83 0 0 1 .74.89.83.83 0 0 1-.74.89h-19.21a.83.83 0 0 1-.74-.89.83.83 0 0 1 .74-.89Z" style="fill:#fff200;stroke:#231f20;stroke-miterlimit:2.613100051879883;stroke-width:.5660396814346313px;fill-rule:evenodd" transform="scale(1.32287 1.32293)"/><path d="M269.56 174.66c0-3.76 2.56-4.82 2.58-4.82a5 5 0 0 1 2.68 4.82Z" style="fill:#fff200;stroke:#231f20;stroke-miterlimit:2.613100051879883;stroke-width:.5657514333724976px;fill-rule:evenodd" transform="scale(1.32287 1.32293)"/><path d="M263 164.48h18.4a.76.76 0 0 1 .71.8.76.76 0 0 1-.71.8H263a.76.76 0 0 1-.71-.8.76.76 0 0 1 .71-.8Zm.37 1.6H281a.75.75 0 0 1 .68.8.75.75 0 0 1-.68.8h-17.63a.75.75 0 0 1-.67-.8.75.75 0 0 1 .67-.8Z" style="fill:#fff200;stroke:#231f20;stroke-miterlimit:2.613100051879883;stroke-width:.5658028721809387px;fill-rule:evenodd" transform="scale(1.32287 1.32293)"/><path d="M271.7 159.44a.49.49 0 1 1 1 0v1.74h-1zm6.02 2.56a.47.47 0 1 1 .94 0v1.35h-.94zm-12.07 0a.47.47 0 1 1 .94 0v1.35h-.94z" style="fill:#231f20;fill-rule:evenodd" transform="scale(1.32287 1.32293)"/><path d="M320.32 154.11h1.39v1h1v-1h1.43v1h1v-1h1.43v2.28a.59.59 0 0 1-.62.59h-5a.64.64 0 0 1-.65-.6v-2.25Z" style="fill:#fff200;stroke:#231f20;stroke-miterlimit:2.613100051879883;stroke-width:.5656973123550415px;fill-rule:evenodd" transform="scale(1.32287 1.32293)"/><path style="fill:#fff200;stroke:#231f20;stroke-miterlimit:2.613100051879883;stroke-width:.5657543540000916px;fill-rule:evenodd" d="m325.56 157.16.31 7.32-4.88-.02.32-7.31z" transform="scale(1.32287 1.32293)"/><path d="M326.37 157.69h1.36v1h1v-1h1.39v1h1v-1h1.4V160a.59.59 0 0 1-.61.59H327a.63.63 0 0 1-.63-.6v-2.25Z" style="fill:#fff200;stroke:#231f20;stroke-miterlimit:2.613100051879883;stroke-width:.5656973719596863px;fill-rule:evenodd" transform="scale(1.32287 1.32293)"/><path style="fill:#fff200;stroke:#231f20;stroke-miterlimit:2.613100051879883;stroke-width:.5657029151916504px;fill-rule:evenodd" d="m331.63 160.54.15 3.94-4.68.01.13-3.95z" transform="scale(1.32287 1.32293)"/><path d="M314.34 157.7h1.36v1h1v-1h1.39v1h1v-1h1.4v2.3a.59.59 0 0 1-.61.59H315a.63.63 0 0 1-.63-.6v-2.29Z" style="fill:#fff200;stroke:#231f20;stroke-miterlimit:2.613100051879883;stroke-width:.5656973719596863px;fill-rule:evenodd" transform="scale(1.32287 1.32293)"/><path style="fill:#fff200;stroke:#231f20;stroke-miterlimit:2.613100051879883;stroke-width:.5657029151916504px;fill-rule:evenodd" d="m319.6 160.55.15 3.95h-4.68l.13-3.95z" transform="scale(1.32287 1.32293)"/><path d="M318.75 175.15c.15-6.26 4.6-7.74 4.63-7.76s4.8 1.6 4.78 7.82z" style="fill:#fff200;fill-rule:evenodd" transform="scale(1.32287 1.32293)"/><path d="m314.92 167.5-.77 7.19h4.69c0-6 4.51-6.94 4.61-6.92s4.52 1.31 4.64 6.92h4.71l-.85-7.25h-17Z" style="fill:#fff200;stroke:#231f20;stroke-miterlimit:2.613100051879883;stroke-width:.5659778714179993px;fill-rule:evenodd" transform="scale(1.32287 1.32293)"/><path d="M313.83 174.73H333a.83.83 0 0 1 .74.89.83.83 0 0 1-.74.89h-19.17a.83.83 0 0 1-.74-.89.83.83 0 0 1 .74-.89Z" style="fill:#fff200;stroke:#231f20;stroke-miterlimit:2.613100051879883;stroke-width:.5660396814346313px;fill-rule:evenodd" transform="scale(1.32287 1.32293)"/><path d="M320.82 174.69c0-3.76 2.56-4.82 2.58-4.82a5 5 0 0 1 2.68 4.82Z" style="fill:#fff200;stroke:#231f20;stroke-miterlimit:2.613100051879883;stroke-width:.5657514333724976px;fill-rule:evenodd" transform="scale(1.32287 1.32293)"/><path d="M314.23 164.52h18.42a.76.76 0 0 1 .71.8.76.76 0 0 1-.71.8h-18.42a.76.76 0 0 1-.71-.8.76.76 0 0 1 .71-.8Z" style="fill:#fff200;stroke:#231f20;stroke-miterlimit:2.613100051879883;stroke-width:.5658028721809387px;fill-rule:evenodd" transform="scale(1.32287 1.32293)"/><path d="M314.62 166.11h17.62a.75.75 0 0 1 .68.8.75.75 0 0 1-.68.8h-17.62a.75.75 0 0 1-.68-.8.75.75 0 0 1 .68-.8Z" style="fill:#fff200;stroke:#231f20;stroke-miterlimit:2.613100051879883;stroke-width:.5658028721809387px;fill-rule:evenodd" transform="scale(1.32287 1.32293)"/><path d="M323 159.47a.49.49 0 1 1 1 0v1.74h-1zm6 2.53a.47.47 0 1 1 .94 0v1.35H329zm-12.09 0a.47.47 0 1 1 .94 0v1.35h-.94z" style="fill:#231f20;fill-rule:evenodd" transform="scale(1.32287 1.32293)"/><path d="M217.25 206.58h1.39v1h1v-1h1.43v1h1v-1h1.43v2.28a.59.59 0 0 1-.62.59h-5a.64.64 0 0 1-.65-.6v-2.25Z" style="fill:#fff200;stroke:#231f20;stroke-miterlimit:2.613100051879883;stroke-width:.5227382183074951px;fill-rule:evenodd" transform="scale(1.32287 1.32293)"/><path style="fill:#fff200;stroke:#231f20;stroke-miterlimit:2.613100051879883;stroke-width:.5621644258499146px;fill-rule:evenodd" d="m222.49 209.63.32 7.32-4.88-.02.32-7.32z" transform="scale(1.32287 1.32293)"/><path d="M223.3 210.15h1.36v1h1v-1h1.39v1h1v-1h1.4v2.28a.59.59 0 0 1-.61.59h-4.9a.63.63 0 0 1-.63-.6v-2.25Z" style="fill:#fff200;stroke:#231f20;stroke-miterlimit:2.613100051879883;stroke-width:.532735288143158px;fill-rule:evenodd" transform="scale(1.32287 1.32293)"/><path style="fill:#fff200;stroke:#231f20;stroke-miterlimit:2.613100051879883;stroke-width:.5227677822113037px;fill-rule:evenodd" d="m228.56 213.01.15 3.94h-4.68l.13-3.94z" transform="scale(1.32287 1.32293)"/><path d="M211.28 210.17h1.36v1h1v-1H215v1h1v-1h1.4v2.28a.59.59 0 0 1-.61.59h-4.9a.63.63 0 0 1-.63-.6v-2.25Z" style="fill:#fff200;stroke:#231f20;stroke-miterlimit:2.613100051879883;stroke-width:.532735288143158px;fill-rule:evenodd" transform="scale(1.32287 1.32293)"/><path style="fill:#fff200;stroke:#231f20;stroke-miterlimit:2.613100051879883;stroke-width:.5227677822113037px;fill-rule:evenodd" d="m216.53 213.02.15 3.94H212l.13-3.94z" transform="scale(1.32287 1.32293)"/><path d="M215.69 227.61c.15-6.26 4.6-7.74 4.63-7.76s4.8 1.6 4.78 7.82z" style="fill:#fff200;fill-rule:evenodd" transform="scale(1.32287 1.32293)"/><path d="m211.85 220-.77 7.19h4.69c0-6 4.51-6.94 4.61-6.92s4.52 1.31 4.64 6.92h4.71l-.85-7.25h-17Z" style="fill:#fff200;stroke:#231f20;stroke-miterlimit:2.613100051879883;stroke-width:.5623824000358582px;fill-rule:evenodd" transform="scale(1.32287 1.32293)"/><path d="M210.76 227.19H230a.83.83 0 0 1 .74.89.83.83 0 0 1-.74.89h-19.24a.83.83 0 0 1-.74-.89.83.83 0 0 1 .74-.89Z" style="fill:#fff200;stroke:#231f20;stroke-miterlimit:2.613100051879883;stroke-width:.5623930096626282px;fill-rule:evenodd" transform="scale(1.32287 1.32293)"/><path d="M217.75 227.16c0-3.76 2.56-4.82 2.58-4.82a5 5 0 0 1 2.68 4.82Z" style="fill:#fff200;stroke:#231f20;stroke-miterlimit:2.613100051879883;stroke-width:.558620035648346px;fill-rule:evenodd" transform="scale(1.32287 1.32293)"/><path d="M211.17 217h18.42a.76.76 0 0 1 .71.8.76.76 0 0 1-.71.8h-18.42a.76.76 0 0 1-.71-.8.76.76 0 0 1 .71-.8Z" style="fill:#fff200;stroke:#231f20;stroke-miterlimit:2.613100051879883;stroke-width:.5621577501296997px;fill-rule:evenodd" transform="scale(1.32287 1.32293)"/><path d="M211.56 218.58h17.62a.75.75 0 0 1 .68.8.75.75 0 0 1-.68.8h-17.62a.75.75 0 0 1-.68-.8.75.75 0 0 1 .68-.8Z" style="fill:#fff200;stroke:#231f20;stroke-miterlimit:2.613100051879883;stroke-width:.5621577501296997px;fill-rule:evenodd" transform="scale(1.32287 1.32293)"/><path d="M219.89 211.94a.49.49 0 1 1 1 0v1.74h-1zm6.02 2.52a.47.47 0 1 1 .94 0v1.35h-.94zm-12.07.01a.47.47 0 1 1 .94 0v1.35h-.94z" style="fill:#231f20;fill-rule:evenodd" transform="scale(1.32287 1.32293)"/><path d="m317.29 262 1 1-.7.7.72.72.71-.71 1 1-.71.71.72.72.71-.71 1 1-1.61 1.57a.59.59 0 0 1-.86 0l-3.54-3.54a.64.64 0 0 1 0-.88l1.59-1.6Z" style="fill:#fff200;stroke:#231f20;stroke-miterlimit:2.613100051879883;stroke-width:.5658199191093445px;fill-rule:evenodd" transform="scale(1.32287 1.32293)"/><path style="fill:#fff200;stroke:#231f20;stroke-miterlimit:2.613100051879883;stroke-width:.5719416737556458px;fill-rule:evenodd" d="m318.84 267.84-4.95 5.39-3.44-3.46 5.4-4.94z" transform="scale(1.32287 1.32293)"/><path d="m319 268.78 1 1-.7.7.7.7.71-.71 1 1-.71.71.7.7.71-.71 1 1-1.61 1.61a.59.59 0 0 1-.85 0l-3.46-3.46a.63.63 0 0 1 0-.87l1.59-1.6Z" style="fill:#fff200;stroke:#231f20;stroke-miterlimit:2.613100051879883;stroke-width:.5668925642967224px;fill-rule:evenodd" transform="scale(1.32287 1.32293)"/><path style="fill:#fff200;stroke:#231f20;stroke-miterlimit:2.613100051879883;stroke-width:.5657204985618591px;fill-rule:evenodd" d="m320.75 274.52-2.69 2.89-3.31-3.3 2.89-2.7z" transform="scale(1.32287 1.32293)"/><path d="m310.53 260.29 1 1-.7.7.7.7.71-.71 1 1-.71.71.71.7.71-.71 1 1-1.61 1.61a.59.59 0 0 1-.85 0l-3.49-3.54a.63.63 0 0 1 0-.87l1.59-1.6Z" style="fill:#fff200;stroke:#231f20;stroke-miterlimit:2.613100051879883;stroke-width:.5668925642967224px;fill-rule:evenodd" transform="scale(1.32287 1.32293)"/><path style="fill:#fff200;stroke:#231f20;stroke-miterlimit:2.613100051879883;stroke-width:.5657204985618591px;fill-rule:evenodd" d="m312.23 266.02-2.68 2.89-3.31-3.3 2.88-2.7z" transform="scale(1.32287 1.32293)"/><path d="M301.31 275.74c4.54-4.32 8.72-2.23 8.76-2.22s2.26 4.52-2.15 8.91z" style="fill:#fff200;fill-rule:evenodd" transform="scale(1.32287 1.32293)"/><path d="m304 267.62-5.63 4.54 3.31 3.33c4.24-4.18 8.1-1.72 8.16-1.63s2.27 4.13-1.61 8.17l3.33 3.33 4.52-5.73-12.07-12Z" style="fill:#fff200;stroke:#231f20;stroke-miterlimit:2.613100051879883;stroke-width:.5659949779510498px;fill-rule:evenodd" transform="scale(1.32287 1.32293)"/><path d="m298.13 272 13.59 13.59a.83.83 0 0 1-.11 1.15.83.83 0 0 1-1.15.11l-13.59-13.59a.83.83 0 0 1 .11-1.15.83.83 0 0 1 1.15-.11Z" style="fill:#fff200;stroke:#231f20;stroke-miterlimit:2.613100051879883;stroke-width:.5696543455123901px;fill-rule:evenodd" transform="scale(1.32287 1.32293)"/><path d="M303.1 276.88c2.67-2.64 5.22-1.59 5.23-1.58a5 5 0 0 1-1.51 5.3z" style="fill:#fff200;stroke:#231f20;stroke-miterlimit:2.613100051879883;stroke-width:.5651450753211975px;fill-rule:evenodd" transform="scale(1.32287 1.32293)"/><path d="m305.64 265 13 13a.76.76 0 0 1-.07 1.06.76.76 0 0 1-1.06.07l-13-13a.76.76 0 0 1 .07-1.06.76.76 0 0 1 1.06-.07Zm-.86 1.44 12.46 12.46a.75.75 0 0 1-.09 1 .75.75 0 0 1-1 .09l-12.46-12.46a.75.75 0 0 1 .09-1 .75.75 0 0 1 1-.09Z" style="fill:#fff200;stroke:#231f20;stroke-miterlimit:2.613100051879883;stroke-width:.565802812576294px;fill-rule:evenodd" transform="scale(1.32287 1.32293)"/><path d="M315.37 267.48a.49.49 0 1 1 .69.69l-1.23 1.23-.69-.69zm2.47 6.04a.47.47 0 1 1 .66.66l-1 1-.66-.66zM309.3 265a.47.47 0 1 1 .66.66l-1 1-.66-.66z" style="fill:#231f20;fill-rule:evenodd" transform="scale(1.32287 1.32293)"/><path d="M320.24 206.59h1.39v1h1v-1h1.43v1h1v-1h1.43v2.28a.59.59 0 0 1-.62.59h-5a.64.64 0 0 1-.65-.6v-2.25Z" style="fill:#fff200;stroke:#231f20;stroke-miterlimit:2.613100051879883;stroke-width:.5656973123550415px;fill-rule:evenodd" transform="scale(1.32287 1.32293)"/><path style="fill:#fff200;stroke:#231f20;stroke-miterlimit:2.613100051879883;stroke-width:.5657543540000916px;fill-rule:evenodd" d="m325.48 209.64.31 7.32-4.88-.02.33-7.32z" transform="scale(1.32287 1.32293)"/><path d="M326.29 210.16h1.36v1h1v-1H330v1h1v-1h1.4v2.28a.59.59 0 0 1-.61.59h-4.9a.63.63 0 0 1-.63-.6v-2.25Z" style="fill:#fff200;stroke:#231f20;stroke-miterlimit:2.613100051879883;stroke-width:.5656973719596863px;fill-rule:evenodd" transform="scale(1.32287 1.32293)"/><path style="fill:#fff200;stroke:#231f20;stroke-miterlimit:2.613100051879883;stroke-width:.5657029151916504px;fill-rule:evenodd" d="m331.55 213.02.15 3.94h-4.68l.13-3.94z" transform="scale(1.32287 1.32293)"/><path d="M314.26 210.18h1.36v1h1v-1H318v1h1v-1h1.4v2.28a.59.59 0 0 1-.61.59h-4.9a.63.63 0 0 1-.63-.6v-2.25Z" style="fill:#fff200;stroke:#231f20;stroke-miterlimit:2.613100051879883;stroke-width:.5656973719596863px;fill-rule:evenodd" transform="scale(1.32287 1.32293)"/><path style="fill:#fff200;stroke:#231f20;stroke-miterlimit:2.613100051879883;stroke-width:.5657029151916504px;fill-rule:evenodd" d="m319.52 213.03.15 3.94h-4.68l.13-3.94z" transform="scale(1.32287 1.32293)"/><path d="M318.67 227.62c.15-6.26 4.6-7.74 4.63-7.76s4.8 1.6 4.78 7.82z" style="fill:#fff200;fill-rule:evenodd" transform="scale(1.32287 1.32293)"/><path d="m314.84 220-.77 7.19h4.69c0-6 4.51-6.94 4.61-6.92s4.52 1.31 4.64 6.92h4.71l-.85-7.25h-17Z" style="fill:#fff200;stroke:#231f20;stroke-miterlimit:2.613100051879883;stroke-width:.5659778714179993px;fill-rule:evenodd" transform="scale(1.32287 1.32293)"/><path d="M313.75 227.2H333a.82.82 0 0 1 .74.89.83.83 0 0 1-.74.89h-19.25a.83.83 0 0 1-.74-.89.83.83 0 0 1 .74-.89Z" style="fill:#fff200;stroke:#231f20;stroke-miterlimit:2.613100051879883;stroke-width:.5660396814346313px;fill-rule:evenodd" transform="scale(1.32287 1.32293)"/><path d="M320.74 227.17c0-3.76 2.56-4.82 2.58-4.82a5 5 0 0 1 2.68 4.82Z" style="fill:#fff200;stroke:#231f20;stroke-miterlimit:2.613100051879883;stroke-width:.5657514333724976px;fill-rule:evenodd" transform="scale(1.32287 1.32293)"/><path d="M314.16 217h18.42a.76.76 0 0 1 .71.8.76.76 0 0 1-.71.8h-18.42a.76.76 0 0 1-.71-.8.76.76 0 0 1 .71-.8Z" style="fill:#fff200;stroke:#231f20;stroke-miterlimit:2.613100051879883;stroke-width:.5658028721809387px;fill-rule:evenodd" transform="scale(1.32287 1.32293)"/><path d="M314.55 218.59h17.62a.75.75 0 0 1 .68.8.75.75 0 0 1-.68.8h-17.62a.75.75 0 0 1-.68-.8.75.75 0 0 1 .68-.8Z" style="fill:#fff200;stroke:#231f20;stroke-miterlimit:2.613100051879883;stroke-width:.5658028721809387px;fill-rule:evenodd" transform="scale(1.32287 1.32293)"/><path d="M322.88 212a.49.49 0 1 1 1 0v1.74h-1zm6.02 2.47a.47.47 0 1 1 .94 0v1.35h-.94zm-12.07.01a.47.47 0 1 1 .94 0v1.35h-.94z" style="fill:#231f20;fill-rule:evenodd" transform="scale(1.32287 1.32293)"/><path d="m222.33 266.32 1-1 .7.7.72-.72-.71-.71 1-1 .71.71.72-.72-.71-.71 1-1 1.61 1.61a.59.59 0 0 1 0 .86l-3.54 3.54a.64.64 0 0 1-.88 0l-1.6-1.59Z" style="fill:#fff200;stroke:#231f20;stroke-miterlimit:2.613100051879883;stroke-width:.5657148957252502px;fill-rule:evenodd" transform="scale(1.32287 1.32293)"/><path style="fill:#fff200;stroke:#231f20;stroke-miterlimit:2.613100051879883;stroke-width:.5657598376274109px;fill-rule:evenodd" d="m228.2 264.77 5.39 4.95-3.46 3.44-4.94-5.4z" transform="scale(1.32287 1.32293)"/><path d="m229.14 264.57 1-1 .7.7.7-.7-.71-.71 1-1 .71.71.7-.7-.71-.71 1-1 1.61 1.61a.59.59 0 0 1 0 .85l-3.46 3.46a.63.63 0 0 1-.87 0l-1.6-1.59Z" style="fill:#fff200;stroke:#231f20;stroke-miterlimit:2.613100051879883;stroke-width:.565714955329895px;fill-rule:evenodd" transform="scale(1.32287 1.32293)"/><path style="fill:#fff200;stroke:#231f20;stroke-miterlimit:2.613100051879883;stroke-width:.5657204985618591px;fill-rule:evenodd" d="m234.88 262.87 2.89 2.68-3.3 3.31-2.7-2.88z" transform="scale(1.32287 1.32293)"/><path d="m220.65 273.08 1-1 .7.7.7-.7-.71-.71 1-1 .71.71.7-.7-.71-.71 1-1 1.61 1.61a.59.59 0 0 1 0 .85l-3.46 3.46a.63.63 0 0 1-.87 0l-1.6-1.59Z" style="fill:#fff200;stroke:#231f20;stroke-miterlimit:2.613100051879883;stroke-width:.565714955329895px;fill-rule:evenodd" transform="scale(1.32287 1.32293)"/><path style="fill:#fff200;stroke:#231f20;stroke-miterlimit:2.613100051879883;stroke-width:.5657204985618591px;fill-rule:evenodd" d="m226.38 271.38 2.89 2.68-3.3 3.31-2.7-2.88z" transform="scale(1.32287 1.32293)"/><path d="M236.1 282.3c-4.32-4.54-2.23-8.72-2.22-8.76s4.52-2.26 8.91 2.15z" style="fill:#fff200;fill-rule:evenodd" transform="scale(1.32287 1.32293)"/><path d="m228 279.6 4.54 5.63 3.33-3.31c-4.18-4.24-1.72-8.1-1.63-8.16s4.13-2.27 8.18 1.61l3.33-3.33-5.75-4.51z" style="fill:#fff200;stroke:#231f20;stroke-miterlimit:2.613100051879883;stroke-width:.5659939050674438px;fill-rule:evenodd" transform="scale(1.32287 1.32293)"/><path d="m232.32 285.48 13.59-13.59a.83.83 0 0 1 1.15.11.83.83 0 0 1 .11 1.15l-13.59 13.59a.83.83 0 0 1-1.15-.11.82.82 0 0 1-.11-1.15Z" style="fill:#fff200;stroke:#231f20;stroke-miterlimit:2.613100051879883;stroke-width:.5660556554794312px;fill-rule:evenodd" transform="scale(1.32287 1.32293)"/><path d="M237.24 280.52c-2.64-2.67-1.59-5.22-1.58-5.23a5 5 0 0 1 5.3 1.51z" style="fill:#fff200;stroke:#231f20;stroke-miterlimit:2.613100051879883;stroke-width:.5657339692115784px;fill-rule:evenodd" transform="scale(1.32287 1.32293)"/><path d="m225.39 278 13-13a.76.76 0 0 1 1.06.07.76.76 0 0 1 .07 1.06l-13 13a.76.76 0 0 1-1.06-.07.76.76 0 0 1-.07-1.06Z" style="fill:#fff200;stroke:#231f20;stroke-miterlimit:2.613100051879883;stroke-width:.565802812576294px;fill-rule:evenodd" transform="scale(1.32287 1.32293)"/><path d="m226.8 278.83 12.46-12.46a.75.75 0 0 1 1 .09.75.75 0 0 1 .09 1L227.92 280a.75.75 0 0 1-1-.09.75.75 0 0 1-.09-1Z" style="fill:#fff200;stroke:#231f20;stroke-miterlimit:2.613100051879883;stroke-width:.565802812576294px;fill-rule:evenodd" transform="scale(1.32287 1.32293)"/><path d="M228 268.1a.49.49 0 1 1 .69-.69l1.23 1.23-.69.69zm6-2.48a.47.47 0 1 1 .66-.66l1 1-.66.66zm-8.49 8.54a.47.47 0 1 1 .66-.66l1 1-.66.66z" style="fill:#231f20;fill-rule:evenodd" transform="scale(1.32287 1.32293)"/></svg>